<?xml version="1.0" encoding="UTF-8"?>
<svg width="121px" height="123px" viewBox="0 0 121 123" version="1.1" xmlns="http://www.w3.org/2000/svg" xmlns:xlink="http://www.w3.org/1999/xlink">
    <!-- Generator: Sketch 48.2 (47327) - http://www.bohemiancoding.com/sketch -->
    <title>Group</title>
    <desc>Created with Sketch.</desc>
    <defs></defs>
    <g id="Page-1" stroke="none" stroke-width="1" fill="none" fill-rule="evenodd">
        <g id="Group">
            <circle id="Oval-2" fill-opacity="0.949999988" fill="#5F2358" cx="60.5" cy="60.5" r="60.5"></circle>
            <path d="M22.5556641,107.195312 L22.5556641,93.1898456 C27.183323,88.5079324 31.124892,85.3416231 34.3803711,83.690918 C42.4930555,79.5773452 53.4900863,77.3561485 60.2363281,77.3461914 C66.2490534,77.3373169 73.0605469,78.371582 81.2089844,81.2026367 C85.5030254,82.6945381 91.7391908,86.6902744 99.9174805,93.1898456 L99.9174805,106.654297 C94.0751322,111.09188 89.6776713,113.972577 86.7250977,115.296387 C76.248248,119.993767 66.8136971,121.41045 61.2365723,121.505859 C55.1524334,121.609943 40.6073367,119.201084 31.2416992,113.667725 C26.5209961,110.878662 23.625651,108.721191 22.5556641,107.195312 Z" id="Path" stroke="#FFFFFF" stroke-width="2" fill-opacity="0.949999988" fill="#5F2358"></path>
            <circle id="Oval" fill="#FFFFFF" cx="61" cy="48" r="19"></circle>
        </g>
    </g>
</svg>