<?xml version="1.0" encoding="UTF-8"?>
<svg width="27px" height="26px" viewBox="0 0 27 26" version="1.1" xmlns="http://www.w3.org/2000/svg" xmlns:xlink="http://www.w3.org/1999/xlink">
    <!-- Generator: Sketch 48.2 (47327) - http://www.bohemiancoding.com/sketch -->
    <title>Shape</title>
    <desc>Created with Sketch.</desc>
    <defs></defs>
    <g id="Score-Survey" stroke="none" stroke-width="1" fill="none" fill-rule="evenodd" transform="translate(-617.000000, -498.000000)">
        <g id="ic_drive_document_24px-copy-2" transform="translate(616.000000, 495.000000)" fill="#681C5B" fill-rule="nonzero">
            <path d="M24.345679,3.02222222 L4.3654321,3.02222222 C2.79555556,3.02222222 1.51111111,4.30666667 1.51111111,5.87654321 L1.51111111,25.8567901 C1.51111111,27.4266667 2.79555556,28.7111111 4.3654321,28.7111111 L24.345679,28.7111111 C25.9155556,28.7111111 27.2,27.4266667 27.2,25.8567901 L27.2,5.87654321 C27.2,4.30666667 25.9155556,3.02222222 24.345679,3.02222222 Z M21.5056296,11.5851852 L7.21975309,11.5851852 L7.21975309,8.7308642 L21.5056296,8.7308642 L21.5056296,11.5851852 Z M21.5056296,17.2938272 L7.21975309,17.2938272 L7.21975309,14.4395062 L21.5056296,14.4395062 L21.5056296,17.2938272 Z M17.2241481,23.0024691 L7.21975309,23.0024691 L7.21975309,20.1481481 L17.2241481,20.1481481 L17.2241481,23.0024691 Z" id="Shape"></path>
        </g>
    </g>
</svg>