<?xml version="1.0" encoding="UTF-8"?>
<svg width="26px" height="32px" viewBox="0 0 26 32" version="1.1" xmlns="http://www.w3.org/2000/svg" xmlns:xlink="http://www.w3.org/1999/xlink">
    <!-- Generator: Sketch 48.2 (47327) - http://www.bohemiancoding.com/sketch -->
    <title>Group</title>
    <desc>Created with Sketch.</desc>
    <defs></defs>
    <g id="Observation-Dashboard" stroke="none" stroke-width="1" fill="none" fill-rule="evenodd" transform="translate(-291.000000, -717.000000)">
        <g id="Group" transform="translate(291.000000, 717.000000)">
            <path d="M0.25,0 C0.112,0 0,0.113 0,0.25 L0,16 L26,16 L26,8 L18.25,8 C18.112,8 18,7.887 18,7.75 L18,0 L0.25,0 Z M19,0 L19,7 L26,7 L19,0 Z M2.75,19.188 L2.75,25.001 L4.25,25.001 L4.25,23.095 L5.188,23.095 C5.612,23.095 5.967,23.056 6.251,22.939 C6.537,22.822 6.769,22.637 7.001,22.408 C7.17,22.239 7.316,22.03 7.407,21.783 C7.498,21.533 7.532,21.293 7.532,21.033 C7.532,20.697 7.469,20.398 7.344,20.158 C7.222,19.918 7.047,19.718 6.813,19.564 C6.618,19.436 6.412,19.345 6.157,19.283 C5.904,19.218 5.589,19.189 5.219,19.189 L2.75,19.189 L2.75,19.188 Z M8.594,19.188 L8.594,25.001 L10.657,25.001 C11.121,25.001 11.506,24.975 11.845,24.907 C12.184,24.839 12.499,24.704 12.783,24.532 C13.161,24.303 13.473,23.99 13.721,23.563 C13.968,23.133 14.096,22.636 14.096,22.094 C14.096,21.532 13.984,21.039 13.752,20.625 C13.523,20.208 13.216,19.87 12.814,19.625 C12.58,19.479 12.283,19.391 11.939,19.312 C11.595,19.231 11.194,19.187 10.72,19.187 L8.595,19.187 L8.594,19.188 Z M15.25,19.188 L15.25,25.001 L16.75,25.001 L16.75,22.501 L19.219,22.501 L19.219,21.376 L16.75,21.376 L16.75,20.313 L19.406,20.313 L19.406,19.188 L15.25,19.188 Z M4.25,20.282 L4.5,20.282 C4.747,20.282 4.945,20.274 5.094,20.282 C5.242,20.287 5.406,20.313 5.563,20.376 C5.68,20.423 5.787,20.506 5.876,20.626 C5.965,20.743 6.001,20.899 6.001,21.064 C6.001,21.231 5.983,21.353 5.938,21.47 C5.896,21.585 5.816,21.699 5.719,21.783 C5.607,21.877 5.479,21.939 5.313,21.971 C5.149,22.002 4.943,22.002 4.688,22.002 L4.25,22.002 L4.25,20.283 L4.25,20.282 Z M10.094,20.282 L10.469,20.282 C10.792,20.282 11.029,20.285 11.188,20.313 C11.349,20.339 11.534,20.394 11.688,20.469 C11.99,20.623 12.206,20.821 12.344,21.094 C12.485,21.365 12.563,21.711 12.563,22.094 C12.563,22.479 12.472,22.8 12.344,23.063 C12.216,23.323 12.024,23.532 11.75,23.688 C11.591,23.774 11.417,23.842 11.25,23.876 C11.083,23.907 10.826,23.907 10.469,23.907 L10.094,23.907 L10.094,20.282 Z M0,28.001 L1.77635684e-15,31.752 C1.77635684e-15,31.89 0.112,32.002 0.25,32.002 L25.75,32.002 C25.888,32.002 26,31.89 26,31.752 L26,28.001 L0,28.001 Z" id="Shape" fill-opacity="0.25" fill="#000000" fill-rule="nonzero"></path>
            <rect id="Rectangle-3" fill="#BFBFBF" x="0" y="16" width="26" height="12"></rect>
        </g>
    </g>
</svg>