<?xml version="1.0" encoding="UTF-8"?>
<svg width="46px" height="46px" viewBox="0 0 46 46" version="1.1" xmlns="http://www.w3.org/2000/svg" xmlns:xlink="http://www.w3.org/1999/xlink">
    <!-- Generator: Sketch 48.2 (47327) - http://www.bohemiancoding.com/sketch -->
    <title>Shape</title>
    <desc>Created with Sketch.</desc>
    <defs></defs>
    <g id="Score:-Attach-One-Photo" stroke="none" stroke-width="1" fill="none" fill-rule="evenodd" transform="translate(-377.000000, -932.000000)">
        <path d="M410.557,944.834 L395.4,959.991 L387.143,951.757 L383.9,955 L395.4,966.5 L413.8,948.1 L410.557,944.834 Z M400,932 C387.304,932 377,942.304 377,955 C377,967.696 387.304,978 400,978 C412.696,978 423,967.696 423,955 C423,942.304 412.696,932 400,932 Z M400,973.4 C389.834,973.4 381.6,965.166 381.6,955 C381.6,944.834 389.834,936.6 400,936.6 C410.166,936.6 418.4,944.834 418.4,955 C418.4,965.166 410.166,973.4 400,973.4 Z" id="Shape" fill="#FFFFFF" fill-rule="nonzero"></path>
    </g>
</svg>