<?xml version="1.0" encoding="UTF-8"?>
<svg width="30px" height="30px" viewBox="0 0 30 30" version="1.1" xmlns="http://www.w3.org/2000/svg" xmlns:xlink="http://www.w3.org/1999/xlink">
    <!-- Generator: Sketch 47.1 (45422) - http://www.bohemiancoding.com/sketch -->
    <title>Shape</title>
    <desc>Created with Sketch.</desc>
    <defs></defs>
    <g id="Symbols" stroke="none" stroke-width="1" fill="none" fill-rule="evenodd">
        <g id="Settings/Normal" fill-rule="nonzero" fill="#9D5F92">
            <path d="M30,17.754 L30,12.246 L25.0487143,12.246 C24.8177143,11.3948571 24.4834286,10.5882857 24.0561429,9.83871429 L27.5545714,6.34028571 L23.6597143,2.44542857 L20.1595714,5.94385714 C19.41,5.51657143 18.6034286,5.18228571 17.754,4.94957143 L17.754,0 L12.246,0 L12.246,4.94957143 C11.3965714,5.18228571 10.5882857,5.51657143 9.83828571,5.94385714 L6.33985714,2.44542857 L2.445,6.34028571 L5.94342857,9.83871429 C5.51571429,10.5882857 5.18185714,11.3948571 4.94914286,12.246 L0,12.246 L0,17.754 L4.94957143,17.754 C5.18228571,18.6051429 5.51657143,19.4117143 5.94385714,20.1612857 L2.44542857,23.6597143 L6.34028571,27.5528571 L9.83871429,24.0561429 C10.5887143,24.4834286 11.3948571,24.8177143 12.2464286,25.0504286 L12.2464286,30 L17.7544286,30 L17.7544286,25.0504286 C18.6038571,24.8177143 19.4121429,24.4834286 20.1621429,24.0561429 L23.6605714,27.5528571 L27.5554286,23.6597143 L24.057,20.1612857 C24.4847143,19.4117143 24.8185714,18.6051429 25.0495714,17.754 L30,17.754 Z M14.5,20 C11.4620408,20 9,17.5379592 9,14.5 C9,11.4620408 11.4620408,9 14.5,9 C17.5362285,9 20,11.4620408 20,14.5 C20,17.5379592 17.5362285,20 14.5,20 Z" id="Shape"></path>
        </g>
    </g>
</svg>